<?xml version="1.0" encoding="iso-8859-1"?>
<!-- Generator: Adobe Illustrator 19.0.0, SVG Export Plug-In . SVG Version: 6.00 Build 0)  -->
<svg version="1.1" id="Capa_1" xmlns="http://www.w3.org/2000/svg" xmlns:xlink="http://www.w3.org/1999/xlink" x="0px" y="0px"
	 viewBox="0 0 59 59" style="enable-background:new 0 0 59 59;" xml:space="preserve">
<g>
	<path d="M17.793,12.293l4-4c0.391-0.391,1.023-0.391,1.414,0s0.391,1.023,0,1.414l-4,4C19.012,13.902,18.756,14,18.5,14
		s-0.512-0.098-0.707-0.293C17.402,13.316,17.402,12.684,17.793,12.293z M21.207,16.707l-2,2C19.012,18.902,18.756,19,18.5,19
		s-0.512-0.098-0.707-0.293c-0.391-0.391-0.391-1.023,0-1.414l2-2c0.391-0.391,1.023-0.391,1.414,0S21.598,16.316,21.207,16.707z
		 M23.21,14.71C23.02,14.89,22.76,15,22.5,15c-0.26,0-0.52-0.11-0.71-0.29c-0.18-0.19-0.29-0.45-0.29-0.71s0.11-0.521,0.29-0.71
		c0.37-0.37,1.05-0.37,1.42,0c0.18,0.189,0.29,0.45,0.29,0.71S23.39,14.52,23.21,14.71z M28.207,9.707l-3,3
		C25.012,12.902,24.756,13,24.5,13s-0.512-0.098-0.707-0.293c-0.391-0.391-0.391-1.023,0-1.414l3-3c0.391-0.391,1.023-0.391,1.414,0
		S28.598,9.316,28.207,9.707z"/>
	<path d="M17.793,40.293l4-4c0.391-0.391,1.023-0.391,1.414,0s0.391,1.023,0,1.414l-4,4C19.012,41.902,18.756,42,18.5,42
		s-0.512-0.098-0.707-0.293C17.402,41.316,17.402,40.684,17.793,40.293z M21.207,44.707l-2,2C19.012,46.902,18.756,47,18.5,47
		s-0.512-0.098-0.707-0.293c-0.391-0.391-0.391-1.023,0-1.414l2-2c0.391-0.391,1.023-0.391,1.414,0S21.598,44.316,21.207,44.707z
		 M23.21,42.71C23.02,42.89,22.77,43,22.5,43c-0.26,0-0.52-0.11-0.71-0.29c-0.18-0.19-0.29-0.45-0.29-0.71s0.11-0.521,0.29-0.71
		c0.38-0.37,1.05-0.37,1.42,0c0.18,0.189,0.29,0.439,0.29,0.71C23.5,42.27,23.39,42.52,23.21,42.71z M28.207,37.707l-3,3
		C25.012,40.902,24.756,41,24.5,41s-0.512-0.098-0.707-0.293c-0.391-0.391-0.391-1.023,0-1.414l3-3c0.391-0.391,1.023-0.391,1.414,0
		S28.598,37.316,28.207,37.707z"/>
	<g>
		<path d="M0.5,56.154C0.5,57.724,1.777,59,3.346,59h52.308c1.569,0,2.846-1.276,2.846-2.846V30h-58V56.154z M51,45
			c-0.828,0-1.5-0.672-1.5-1.5S50.172,42,51,42s1.5,0.672,1.5,1.5S51.828,45,51,45z M54,39.5c0.828,0,1.5,0.672,1.5,1.5
			s-0.672,1.5-1.5,1.5s-1.5-0.672-1.5-1.5S53.172,39.5,54,39.5z M51,37c0.828,0,1.5,0.672,1.5,1.5S51.828,40,51,40
			s-1.5-0.672-1.5-1.5S50.172,37,51,37z M48,39.5c0.828,0,1.5,0.672,1.5,1.5s-0.672,1.5-1.5,1.5s-1.5-0.672-1.5-1.5
			S47.172,39.5,48,39.5z M13.5,34.576c0-1.421,1.156-2.576,2.576-2.576h26.848c1.42,0,2.576,1.155,2.576,2.576v17.848
			c0,1.421-1.156,2.576-2.576,2.576H16.076c-1.42,0-2.576-1.155-2.576-2.576V34.576z M4.5,39h3v-3h2v3h3v2h-3v3h-2v-3h-3V39z"/>
		<path d="M58.5,28V2.846C58.5,1.276,57.223,0,55.654,0H3.346C1.777,0,0.5,1.276,0.5,2.846V28H58.5z M53.79,12.29
			c0.37-0.37,1.04-0.37,1.42,0c0.18,0.189,0.29,0.439,0.29,0.71c0,0.26-0.11,0.52-0.29,0.71C55.02,13.89,54.76,14,54.5,14
			c-0.26,0-0.52-0.11-0.71-0.29c-0.18-0.19-0.29-0.45-0.29-0.71C53.5,12.729,53.61,12.479,53.79,12.29z M53.79,16.29
			c0.37-0.37,1.05-0.37,1.42,0c0.18,0.189,0.29,0.45,0.29,0.71s-0.11,0.52-0.29,0.71C55.02,17.89,54.76,18,54.5,18
			c-0.26,0-0.52-0.11-0.71-0.29c-0.18-0.19-0.29-0.45-0.29-0.71C53.5,16.729,53.61,16.479,53.79,16.29z M50.79,12.29
			c0.37-0.37,1.04-0.37,1.42,0c0.18,0.189,0.29,0.439,0.29,0.71c0,0.26-0.11,0.52-0.29,0.71C52.02,13.89,51.76,14,51.5,14
			c-0.26,0-0.52-0.11-0.71-0.29c-0.18-0.19-0.29-0.45-0.29-0.71C50.5,12.729,50.61,12.47,50.79,12.29z M50.79,16.29
			c0.36-0.36,1.04-0.37,1.42,0c0.18,0.189,0.29,0.45,0.29,0.71s-0.11,0.52-0.29,0.71C52.02,17.89,51.76,18,51.5,18
			c-0.27,0-0.52-0.11-0.71-0.29c-0.18-0.19-0.29-0.45-0.29-0.71S50.61,16.479,50.79,16.29z M47.79,12.29c0.37-0.37,1.04-0.37,1.42,0
			c0.18,0.189,0.29,0.439,0.29,0.71c0,0.26-0.11,0.52-0.29,0.71C49.02,13.89,48.76,14,48.5,14c-0.26,0-0.52-0.11-0.71-0.29
			c-0.18-0.19-0.29-0.45-0.29-0.71C47.5,12.729,47.61,12.47,47.79,12.29z M47.79,16.29c0.37-0.37,1.05-0.37,1.42,0
			c0.18,0.189,0.29,0.45,0.29,0.71s-0.11,0.52-0.29,0.71C49.02,17.89,48.76,18,48.5,18c-0.26,0-0.52-0.11-0.71-0.29
			c-0.18-0.19-0.29-0.45-0.29-0.71C47.5,16.729,47.61,16.479,47.79,16.29z M13.5,6.572c0-1.421,1.156-2.576,2.576-2.576h26.848
			c1.42,0,2.576,1.155,2.576,2.576v16.852c0,1.421-1.156,2.576-2.576,2.576H16.076c-1.42,0-2.576-1.155-2.576-2.576V6.572z
			 M9.79,12.29c0.37-0.37,1.04-0.37,1.42,0c0.18,0.189,0.29,0.439,0.29,0.71c0,0.26-0.11,0.52-0.29,0.71
			C11.02,13.89,10.76,14,10.5,14c-0.26,0-0.52-0.11-0.71-0.29C9.61,13.52,9.5,13.26,9.5,13C9.5,12.729,9.61,12.479,9.79,12.29z
			 M9.79,16.29c0.37-0.37,1.05-0.37,1.42,0c0.18,0.189,0.29,0.45,0.29,0.71s-0.11,0.52-0.29,0.71C11.02,17.89,10.76,18,10.5,18
			c-0.26,0-0.52-0.11-0.71-0.29C9.61,17.52,9.5,17.26,9.5,17C9.5,16.729,9.61,16.479,9.79,16.29z M6.79,12.29
			c0.37-0.37,1.04-0.37,1.42,0C8.39,12.479,8.5,12.729,8.5,13c0,0.26-0.11,0.52-0.29,0.71C8.02,13.89,7.76,14,7.5,14
			c-0.26,0-0.52-0.11-0.71-0.29C6.61,13.52,6.5,13.26,6.5,13C6.5,12.729,6.61,12.47,6.79,12.29z M6.79,16.29
			c0.36-0.36,1.04-0.37,1.42,0C8.39,16.479,8.5,16.74,8.5,17s-0.11,0.52-0.29,0.71C8.02,17.89,7.76,18,7.5,18
			c-0.27,0-0.52-0.11-0.71-0.29C6.61,17.52,6.5,17.26,6.5,17S6.61,16.479,6.79,16.29z M3.79,12.29c0.37-0.37,1.04-0.37,1.42,0
			C5.39,12.479,5.5,12.729,5.5,13c0,0.26-0.11,0.52-0.29,0.71C5.02,13.89,4.76,14,4.5,14c-0.26,0-0.52-0.11-0.71-0.29
			C3.61,13.52,3.5,13.26,3.5,13C3.5,12.729,3.61,12.47,3.79,12.29z M3.79,16.29c0.37-0.37,1.05-0.37,1.42,0
			C5.39,16.479,5.5,16.74,5.5,17s-0.11,0.52-0.29,0.71C5.02,17.89,4.76,18,4.5,18c-0.26,0-0.52-0.11-0.71-0.29
			C3.61,17.52,3.5,17.26,3.5,17S3.61,16.479,3.79,16.29z"/>
	</g>
</g>
<g>
</g>
<g>
</g>
<g>
</g>
<g>
</g>
<g>
</g>
<g>
</g>
<g>
</g>
<g>
</g>
<g>
</g>
<g>
</g>
<g>
</g>
<g>
</g>
<g>
</g>
<g>
</g>
<g>
</g>
</svg>
