<?xml version="1.0" encoding="iso-8859-1"?>
<!-- Generator: Adobe Illustrator 19.0.0, SVG Export Plug-In . SVG Version: 6.00 Build 0)  -->
<svg version="1.1" id="Capa_1" xmlns="http://www.w3.org/2000/svg" xmlns:xlink="http://www.w3.org/1999/xlink" x="0px" y="0px"
	 viewBox="0 0 60 60" style="enable-background:new 0 0 60 60;" xml:space="preserve">
<g>
	<rect x="20" y="46" width="3" height="1"/>
	<circle cx="46" cy="40" r="2"/>
	<rect x="37" y="46" width="3" height="1"/>
	<circle cx="14" cy="40" r="2"/>
	<path d="M0,0v13v1v23c0,0.143,0.03,0.284,0.09,0.414L4.447,47H13v-3.142c-1.72-0.447-3-1.999-3-3.858c0-2.206,1.794-4,4-4
		s4,1.794,4,4c0,1.859-1.28,3.411-3,3.858V47h3v-2c0-0.553,0.447-1,1-1h5c0.553,0,1,0.447,1,1v2h10v-2c0-0.553,0.447-1,1-1h5
		c0.553,0,1,0.447,1,1v2h3v-3.142c-1.72-0.447-3-1.999-3-3.858c0-2.206,1.794-4,4-4s4,1.794,4,4c0,1.859-1.28,3.411-3,3.858V47
		h8.542l4.372-9.791C59.971,37.081,60,36.942,60,36.802V14v-1V0H0z M53,3c2.206,0,4,1.794,4,4s-1.794,4-4,4s-4-1.794-4-4
		S50.794,3,53,3z M30.29,6.29c0.38-0.37,1.05-0.37,1.42,0C31.89,6.479,32,6.74,32,7s-0.11,0.52-0.29,0.71C31.52,7.89,31.26,8,31,8
		s-0.521-0.11-0.71-0.29C30.109,7.52,30,7.26,30,7C30,6.729,30.109,6.479,30.29,6.29z M27,6c0.55,0,1,0.45,1,1s-0.45,1-1,1
		s-1-0.45-1-1S26.45,6,27,6z M23,6c0.55,0,1,0.45,1,1s-0.45,1-1,1s-1-0.45-1-1S22.45,6,23,6z M19,6c0.55,0,1,0.45,1,1s-0.45,1-1,1
		s-1-0.45-1-1S18.45,6,19,6z M14.29,6.29c0.38-0.37,1.04-0.37,1.42,0C15.89,6.479,16,6.74,16,7s-0.11,0.52-0.29,0.71
		C15.52,7.89,15.26,8,15,8s-0.521-0.11-0.71-0.29C14.109,7.52,14,7.26,14,7C14,6.729,14.109,6.479,14.29,6.29z M4,5
		c0-0.553,0.447-1,1-1s1,0.447,1,1v1h1V4c0-0.553,0.447-1,1-1s1,0.447,1,1v2h1c0.553,0,1,0.447,1,1s-0.447,1-1,1H9v2
		c0,0.553-0.447,1-1,1s-1-0.447-1-1V8H6v1c0,0.553-0.447,1-1,1S4,9.553,4,9V5z M8,22.932L5.432,44.335L2,36.783V15.221l6.453,5.713
		C8.175,21.546,8.009,22.219,8,22.932z M15.707,30.707l-2,2C13.512,32.902,13.256,33,13,33s-0.512-0.098-0.707-0.293
		c-0.391-0.391-0.391-1.023,0-1.414l2-2c0.391-0.391,1.023-0.391,1.414,0S16.098,30.316,15.707,30.707z M12.293,26.293l4-4
		c0.391-0.391,1.023-0.391,1.414,0s0.391,1.023,0,1.414l-4,4C13.512,27.902,13.256,28,13,28s-0.512-0.098-0.707-0.293
		C11.902,27.316,11.902,26.684,12.293,26.293z M17.71,28.71C17.52,28.89,17.27,29,17,29c-0.271,0-0.53-0.11-0.71-0.29
		C16.109,28.52,16,28.26,16,28c0-0.271,0.109-0.521,0.29-0.71c0.37-0.37,1.04-0.37,1.42,0C17.89,27.479,18,27.729,18,28
		C18,28.26,17.89,28.52,17.71,28.71z M22.707,23.707l-3,3C19.512,26.902,19.256,27,19,27s-0.512-0.098-0.707-0.293
		c-0.391-0.391-0.391-1.023,0-1.414l3-3c0.391-0.391,1.023-0.391,1.414,0S23.098,23.316,22.707,23.707z M58,36.589l-3.438,7.699
		L52,22.932c-0.009-0.713-0.175-1.386-0.453-1.997L58,15.221V36.589z M50.367,19.307c-0.087-0.08-0.189-0.14-0.281-0.213
		c-0.129-0.102-0.254-0.208-0.394-0.298c-0.126-0.081-0.261-0.143-0.394-0.212c-0.144-0.075-0.284-0.157-0.436-0.219
		c-0.157-0.063-0.323-0.103-0.487-0.15c-0.138-0.04-0.271-0.091-0.414-0.119C47.649,18.035,47.329,18,47.005,18h-34.01
		c-0.324,0-0.644,0.035-0.957,0.096c-0.143,0.028-0.275,0.079-0.413,0.119c-0.164,0.047-0.33,0.087-0.487,0.15
		c-0.152,0.061-0.292,0.143-0.436,0.218c-0.133,0.069-0.268,0.132-0.395,0.213c-0.139,0.089-0.264,0.195-0.393,0.297
		c-0.093,0.073-0.194,0.133-0.282,0.213L3.639,14h52.723L50.367,19.307z"/>
	<circle cx="53" cy="7" r="2"/>
	<circle cx="47.5" cy="54.5" r="1.5"/>
	<circle cx="12.5" cy="54.5" r="1.5"/>
	<path d="M55.447,49H4.553C2.042,49,0,51.042,0,53.553V60h60v-6.447C60,51.042,57.958,49,55.447,49z M7,58H5v-7h2V58z M12.5,58
		C10.57,58,9,56.43,9,54.5s1.57-3.5,3.5-3.5s3.5,1.57,3.5,3.5S14.43,58,12.5,58z M47.5,58c-1.93,0-3.5-1.57-3.5-3.5
		s1.57-3.5,3.5-3.5s3.5,1.57,3.5,3.5S49.43,58,47.5,58z M55,58h-2v-7h2V58z"/>
</g>
<g>
</g>
<g>
</g>
<g>
</g>
<g>
</g>
<g>
</g>
<g>
</g>
<g>
</g>
<g>
</g>
<g>
</g>
<g>
</g>
<g>
</g>
<g>
</g>
<g>
</g>
<g>
</g>
<g>
</g>
</svg>
